<?xml version="1.0" encoding="utf-8"?>
<!-- Generator: Adobe Illustrator 28.0.0, SVG Export Plug-In . SVG Version: 6.00 Build 0)  -->
<svg version="1.1" id="Layer_2_00000067194321451887788740000016981871277705472392_"
	 xmlns="http://www.w3.org/2000/svg" xmlns:xlink="http://www.w3.org/1999/xlink" x="0px" y="0px" viewBox="0 0 1047.1 241.4"
	 style="enable-background:new 0 0 1047.1 241.4;" xml:space="preserve">
<style type="text/css">
	.st0{fill:#A4E443;}
	.st1{fill:#A4E443;stroke:#A6A8AB;stroke-width:0.2151;stroke-miterlimit:10;}
</style>
<g>
	<g id="Icon">
		<path class="st0" d="M125.3,7.3C121.1,14.1-1,17.3,0,7.3c0.2-1.7,1.1-1.9,1.4-2.2c9.7-3.7,20.5-3.4,30.7-4.4
			C60.8-0.9,89.6,0.2,118,4.5C120.2,5.2,124.1,5.1,125.3,7.3L125.3,7.3z M124.9,7.3c-1.5-1.6-4.8-1.6-7-2c-18-2.1-36.3-1-54.4-1
			c-20,0.8-40.6-0.7-60.2,3.8c-0.2,0,0.1,0.3,0.2-0.8C3.3,6.3,3,6.6,3.2,6.6c19.5,5,40.2,4,60.2,4.8c18.1,0.2,36.4,0.6,54.5-1.9
			C120.1,9,123.4,8.9,124.9,7.3L124.9,7.3z"/>
		<path class="st0" d="M125.3,7.4L61.8,112.3c-0.8,1.4-3,0.9-3.2-0.7c-0.4-4.7-2-9.5-3.9-14.1C41.2,65.2,18.3,36.2,0.5,7.2
			c13.3,15.3,25.3,31.6,36.6,48.4C47.6,73,60,90.2,62.1,111.3l-3.2-0.9C59.2,110.6,124.8,6.2,125.3,7.4L125.3,7.4z"/>
		<path class="st0" d="M59.8,221.1c1.7-18.7,1.3-37.6,0.8-56.3c-0.4-16.2-0.2-40.3-2.2-56l4-0.8c1.3,9.8,1.3,19,1.7,28.5
			c0.9,28.3-0.1,56.6-2.4,84.8C61.6,221.3,59.8,221.1,59.8,221.1L59.8,221.1z"/>
		<g>
			<ellipse class="st0" cx="60.6" cy="220" rx="4.3" ry="1.2"/>
			<path class="st1" d="M64.9,220c0.2,1.6-8.8,1.6-8.6,0C56.1,218.5,65.1,218.5,64.9,220L64.9,220z"/>
		</g>
		<path class="st0" d="M106.1,220.3c-3.3,23-54,24-71.3,18.1c-15.6-3.8-30-18.8-12.2-30.8c11.6-7.2,25.6-8.9,38.9-8.8
			C75.5,199.3,103.9,203.1,106.1,220.3h-0.6c-1-8.9-11.2-12.6-18.7-15c-19.9-5.1-43.6-4.7-61.5,6.2c-7.4,4.8-7.6,12,0,16.8
			c20.8,12.1,51.6,12.9,73.1,1.8c3.5-2.2,6.9-5.5,7.1-9.8H106.1L106.1,220.3z"/>
	</g>
	<g id="Icon_00000126288264447713527160000000863697800262349702_">
		<path class="st0" d="M168.6,204.8"/>
		<path class="st0" d="M115.3,107.3c0,20.1,0.9,49.4,1.3,69.8c-0.2,9.7,0.1,20.2,0.4,29.5c0.3,1.7,2,3.3,4,4.4
			c8.9,5.7,47.5,7.2,46.6-8.1c0.1-31.8-0.8-64,0.8-96c1.3,22.1-0.2,46.9,1.3,69.8c0,5,0.3,17.6,0.3,22.4c-0.1,2.5,0.4,5.1-0.2,7.8
			c-6.3,13-30.9,12.2-43,9.5c-5.1-1.5-11.2-3.3-12.8-9.3c-0.3-10.4-0.2-20.4,0.1-30.1C114.5,156.6,115.2,127.5,115.3,107.3
			L115.3,107.3z"/>
		<path class="st0" d="M168.8,176.8c-2.9,15.6-39.7,15.7-50.2,7.8c-6.3-3.9-6.3-11.1,0.1-14.9C129.3,161.9,165.5,161,168.8,176.8
			c-5.4-14.2-37.7-12.7-48.5-4.9c-12.6,10.7,14.2,15.8,21.7,15.5C151.1,187.3,165.5,186.4,168.8,176.8L168.8,176.8z"/>
		<path class="st0" d="M168.8,107c-2.9,15.6-39.7,15.7-50.2,7.8c-6.3-3.9-6.3-11.1,0.1-14.9C129.3,92.1,165.5,91.1,168.8,107
			c-5.4-14.2-37.7-12.7-48.5-4.9c-12.6,10.7,14.2,15.8,21.7,15.5C151.1,117.5,165.5,116.6,168.8,107L168.8,107z"/>
	</g>
</g>
<g>
	<path class="st0" d="M247.8,163.6c23.2,0,26.1-15.4,26.1-32.3c0-11.3-2.1-22.3-2.1-33.4c0-16.5,4-29.6,27.8-29.6
		c14,0,21.5,7.1,21.5,14.8c0,6-5.2,12.3-17.1,15.7l-1-2.1c5.2-3.3,8.4-9.4,8.4-14.8c0-6.1-3.8-10.9-11.7-10.9
		c-12.5,0-15.4,9-15.4,20.7c0,10.4,2.3,21.3,2.3,33.2c0,23.8-11.7,41.3-39,41.3c-18.8,0-29-9.6-29-19.6c0-10.8,7.5-19.2,20.5-19.2
		c6.1,0,12.1,2.5,14.8,8.3l-2.1,1.2c-2.3-3.6-6-5.4-9.6-5.4c-7.7,0-14,6.5-14,15.4S235.1,163.6,247.8,163.6z"/>
	<path class="st0" d="M322.9,129.3l-0.8,1.3c10.2-10.6,17.1-12.3,23-12.3c5.8,0,9,3.5,9,8.8c0,16.5-25.9,39.2-44.5,39.2
		c-3.3,0-6.1-0.8-8.3-2.7l-5.8,9.2c4-0.4,7.9-0.4,11.5-0.4c28.2,0,42.8,13.2,42.8,25.9c0,11.5-11.9,22.7-36.7,22.7
		c-9.8,0-19.2-1.9-24.4-4.6l1.3-1.7c5,2.3,13.6,4,22.5,4c14.4,0,29-4.4,29-18.2c0-17.9-22.7-23.6-43.6-23.6c-1.7,0-3.5,0.2-5.2,0.2
		l-1.3,2.1c-24.6,39.4-57.4,62-84.1,62c-10.4,0-30.5-4-30.5-18.8c0-29.8,61.4-42.2,106.2-48.2l25.9-41.3c5.8-9.4,1.7-10.9-8.6-4
		l-1.3-1.5c6.5-5.2,13.4-9,18.8-9C324.2,118.3,326.1,124.1,322.9,129.3z M279.1,180.5l1.7-2.5c-28.6,3.3-92.4,13.6-92.4,45.3
		c0,11.7,10.8,15.6,19.4,15.6C235.3,238.9,264.7,203.4,279.1,180.5z M308.1,158.1c0,3.1,1.7,4.6,4.4,4.6c13.4,0,29.2-21.1,29.2-32.3
		c0-3.3-1.5-4.4-4.4-4.4C327.1,126,308.1,146.2,308.1,158.1z"/>
	<path class="st0" d="M353,155.4l19.8-31.5c5.4-0.8,11.1-5.2,13.6-7.7l2.1,0.8l-21.7,34.8c-5.8,9.4-1.7,10.9,8.6,4l1.3,1.5
		c-6.5,5.2-13.4,9-18.8,9C351.7,166.3,349.8,160.6,353,155.4z M379.7,111.8c0-5,8.1-10.6,11.5-10.6c1.3,0,2.3,1,2.3,2.7
		c0,5-7.5,10.9-11.3,10.9c-1,0-1.7-0.4-2.1-1.2C379.9,113.1,379.7,112.6,379.7,111.8z"/>
	<path class="st0" d="M415.4,123.1c5-3.1,10-4.8,15.2-4.8c4.8,0,9.2,1.5,10.9,6.5l-9.8,10l-1.7-1.5c1.5-2.9,1.9-4.4,1.9-6.9
		c0-3.1-1.7-4.4-4.4-4.4c-7.7,0-14.2,8.8-20.2,18l-15.6,24.6c-0.8,1.2-1.5,1.7-2.3,1.7c-2.1,0-3.5-4-3.5-6.1c0-3.8,2.1-8.4,4.8-12.5
		l9.4-14.8c5.8-9.4,1.7-10.9-8.6-4l-1.3-1.5c6.5-5.2,13.4-9,18.8-9C412.7,118.3,415,120.4,415.4,123.1z"/>
	<path class="st0" d="M431.7,155.4l19.8-31.5c5.4-0.8,11.1-5.2,13.6-7.7l2.1,0.8l-21.7,34.8c-5.8,9.4-1.7,10.9,8.6,4l1.3,1.5
		c-6.5,5.2-13.4,9-18.8,9C430.4,166.3,428.5,160.6,431.7,155.4z M458.4,111.8c0-5,8.1-10.6,11.5-10.6c1.3,0,2.3,1,2.3,2.7
		c0,5-7.5,10.9-11.3,10.9c-1,0-1.7-0.4-2.1-1.2C458.6,113.1,458.4,112.6,458.4,111.8z"/>
	<path class="st0" d="M468.4,166.3c-4.2,0-6.5-2.7-6.5-6c0-1.5,0.4-3.3,1.5-5l21.1-33.6h-12.1l1.9-3.5h12.3l5.6-8.6
		c5.4-0.8,11.1-5.2,13.6-7.7l2.1,0.8l-9.8,15.6h17.5l-1.9,3.5H496L475.5,155c-1.9,3.1-1.5,4.4,1.5,4.4c6.3,0,12.7-6.1,15.6-9
		l1.9,1.7C489.1,159,480.1,166.3,468.4,166.3z"/>
	<path class="st0" d="M657.3,71.7c9.6,0,14.6,0,20-0.2c10-0.4,16.1-1.3,40.5-3.1l1.2,1.7c-20.2,12.9-48.8,46.1-48.8,73.2
		c0,9.8,4,18.4,15,18.4c3.8,0,7.7-1.3,10.6-4l1.7,1.3c-3.6,5.4-10.2,7.3-16.3,7.3c-14.4,0-23.4-10.2-23.4-20.9
		c0-10.4,3.3-20.2,8.4-29.4h-20.4c-7.5,8.3-15,16.7-23.2,23.8c-18,15.6-44.9,26.5-65.9,26.5c-12.9,0-26.7-4.4-26.7-18
		c0-10.4,7.3-19.2,20.5-19.2c6.1,0,12.1,2.5,14.8,8.3l-1.9,1c-2.3-3.6-6.1-5.2-9.8-5.2c-7.7,0-14,6.5-14,15.4
		c0,11.3,8.4,15.2,18.4,15.2c25.7,0,50.9-20,70.3-41.9c15.6-17.7,30.9-36.3,50.7-46.3c-6.3,1.2-13.4,1-28.4,1
		c-28.4,0-53.6,0.4-53.6,27.8c0,8.3,5.2,15.6,13.4,15.6c4.8,0,10-1.7,14.6-6.1l1.5,1.7c-5.8,5.6-13.2,8.3-19.8,8.3
		c-13.6,0-19.4-10-19.4-19C587.4,74.5,633.9,71.9,657.3,71.7z M648.9,112.6h19.4c9.6-15.2,24.6-30.9,41.5-40.3
		C684.8,72.8,666.9,92.2,648.9,112.6z"/>
	<path class="st0" d="M734.1,123.1c5-3.1,10-4.8,15.2-4.8c4.8,0,9.2,1.5,10.9,6.5l-9.8,10l-1.7-1.5c1.5-2.9,1.9-4.4,1.9-6.9
		c0-3.1-1.7-4.4-4.4-4.4c-7.7,0-14.2,8.8-20.2,18l-15.6,24.6c-0.8,1.2-1.5,1.7-2.3,1.7c-2.1,0-3.5-4-3.5-6.1c0-3.8,2.1-8.4,4.8-12.5
		l9.4-14.8c5.8-9.4,1.7-10.9-8.6-4l-1.3-1.5c6.5-5.2,13.4-9,18.8-9C731.4,118.3,733.7,120.4,734.1,123.1z"/>
	<path class="st0" d="M758.3,166.3c-4.2,0-6.5-2.7-6.5-6c0-1.5,0.4-3.3,1.5-5l21.1-33.6h-12.1l1.9-3.5h12.3l5.6-8.6
		c5.4-0.8,11.1-5.2,13.6-7.7l2.1,0.8l-9.8,15.6h17.5l-1.9,3.5H786L765.4,155c-1.9,3.1-1.5,4.4,1.5,4.4c6.3,0,12.7-6.1,15.6-9
		l1.9,1.7C779.1,159,770,166.3,758.3,166.3z"/>
	<path class="st0" d="M790,155.4l19.8-31.5c5.4-0.8,11.1-5.2,13.6-7.7l2.1,0.8l-21.7,34.8c-5.8,9.4-1.7,10.9,8.6,4l1.3,1.5
		c-6.5,5.2-13.4,9-18.8,9C788.7,166.3,786.7,160.6,790,155.4z M816.7,111.8c0-5,8.1-10.6,11.5-10.6c1.3,0,2.3,1,2.3,2.7
		c0,5-7.5,10.9-11.3,10.9c-1,0-1.7-0.4-2.1-1.2C816.9,113.1,816.7,112.6,816.7,111.8z"/>
	<path class="st0" d="M828.6,150.6c-1,1.9-1.5,4-1.5,6.1c0,3.5,1.9,7.3,7.5,7.3c6.3,0,15-4.8,15-10.6c0-6.7-17.9-7.7-17.9-18.4
		c0-9,13.4-16.7,26.1-16.7c6.1,0,11.9,2.7,13.6,7.7l-8.6,8.8l-1.5-1.2c1-1.9,1.9-4.6,1.9-7.1c0-3.1-2.1-6-7.1-6s-12.9,4.2-12.9,10.4
		c0,5.8,17.9,8.3,17.9,19.2c0,7.9-13.6,16.1-27.3,16.1c-7.3,0-13.8-2.1-16.7-6.7l9.8-10L828.6,150.6z"/>
	<path class="st0" d="M901,155.6c-9.6,9-17.1,10.8-22.7,10.8c-5.2,0-7.9-4-7.9-8.8c0-17.7,26.7-39.2,44.5-39.2c4,0,7.9,1.2,10,4.6
		c4-1.7,7.9-4.8,9.8-6.7l2.1,0.8l-23.4,37.2c-3.5,7.1,0.8,7.9,10.2,1.5l1.3,1.5c-6.5,5.2-13.4,9-18.8,9
		C899.8,166.3,897.9,160.8,901,155.6z M912.7,137.1c2.3-3.8,5.6-8.6,5.6-11.7c0-3.1-1.7-4.6-4.4-4.6c-12.3,0-30.9,20.2-30.9,33
		c0,3.3,1.5,5.8,4.4,5.8C894.6,159.6,904.4,150.4,912.7,137.1z"/>
	<path class="st0" d="M961.6,129.3l-0.4,0.6c9.4-9,16.9-11.5,23.2-11.5c3.3,0,8.1,1.5,8.1,7.7c0,3.5-1.2,6.9-4.2,11.7l-8.6,14
		c-5.8,9.4-1.7,10.9,8.6,4l1.3,1.5c-6.5,5.2-13.4,9-18.8,9c-6.3,0-8.3-5.8-5-10.9L978,136c0.8-1.3,3.3-5.4,3.3-8.3
		c0-1.7-1.2-3.1-3.3-3.1c-10.6,0-20.5,11.1-27.5,22.5l-10.9,17.5c-0.8,1.2-1.5,1.7-2.3,1.7c-2.1,0-3.5-4-3.5-6.1
		c0-3.8,2.1-8.4,4.8-12.5l9.2-14.8c5.8-9.4,1.7-10.9-8.6-4l-1.3-1.5c6.5-5.2,13.4-9,18.8-9C963,118.3,964.9,124.1,961.6,129.3z"/>
	<path class="st0" d="M1004.3,150.6c-1,1.9-1.5,4-1.5,6.1c0,3.5,1.9,7.3,7.5,7.3c6.3,0,15-4.8,15-10.6c0-6.7-17.9-7.7-17.9-18.4
		c0-9,13.4-16.7,26.1-16.7c6.1,0,11.9,2.7,13.6,7.7l-8.6,8.8l-1.5-1.2c1-1.9,1.9-4.6,1.9-7.1c0-3.1-2.1-6-7.1-6s-12.9,4.2-12.9,10.4
		c0,5.8,17.9,8.3,17.9,19.2c0,7.9-13.6,16.1-27.3,16.1c-7.3,0-13.8-2.1-16.7-6.7l9.8-10L1004.3,150.6z"/>
</g>
</svg>
